<svg width="180" height="60" xmlns="http://www.w3.org/2000/svg" fill-rule="nonzero">

 <g>
  <title>Layer 1</title>
  <g stroke="null" id="svg_1" text-anchor="none" font-size="none" font-weight="none" font-family="none" stroke-dashoffset="0" stroke-miterlimit="10" fill-rule="nonzero" fill="#378fc0">
   <g stroke="null" id="svg_2" transform="translate(258 169) scale(5.12 5.12)">
    <path stroke="null" id="svg_3" d="m33.24577,20.59528c-1.50397,0 -2.72306,1.24689 -2.72306,2.78516c0,0.58324 0.17435,1.12296 0.47358,1.57043l1.87951,-0.54871c-0.40605,-0.15421 -0.69556,-0.55344 -0.69556,-1.02173c0,-0.49762 0.32697,-0.91814 0.77326,-1.04822c0.01202,-0.0123 0.02821,-0.02223 0.0481,-0.02649l3.10414,-0.97632c0.0481,-0.0175 0.07862,-0.06149 0.0777,-0.11353c-0.00092,-0.05203 -0.0333,-0.09744 -0.0814,-0.11353c-0.06243,-0.02081 -1.55022,-0.50708 -2.85626,-0.50708zm2.24949,1.21472l-1.88691,0.54492c0.40975,0.15184 0.70296,0.55438 0.70296,1.02551c0,0.50803 -0.34223,0.93564 -0.80286,1.05579c-0.01202,0.00946 -0.02405,0.01561 -0.0407,0.01892l-3.08194,0.97632c-0.0481,0.0175 -0.07862,0.06149 -0.0777,0.11353c0.00092,0.05203 0.0333,0.09744 0.0814,0.11353c0.0629,0.02081 1.55022,0.50708 2.85626,0.50708c1.50397,0 2.72306,-1.24689 2.72306,-2.78516c0,-0.58324 -0.17435,-1.12296 -0.47358,-1.57043zm-2.24949,0.72278c-0.45785,0 -0.82876,0.37936 -0.82876,0.84766c0,0.46829 0.37091,0.84766 0.82876,0.84766c0.45785,0 0.82876,-0.37936 0.82876,-0.84766c0,-0.46829 -0.37091,-0.84766 -0.82876,-0.84766z"/>
   </g>
  </g>
  <text style="cursor: move;" transform="matrix(0.166461 0 0 0.129927 720.06 215.675)" stroke="#000" font-weight="normal" xml:space="preserve" text-anchor="start" font-family="Noto Sans JP" font-size="167" id="svg_4" y="627.61783" x="-1638.32226" stroke-width="0" fill="#ffffff">Dev-Projects</text>
 </g>
</svg>